<?xml version="1.0" encoding="utf-8"?>
<!-- Generator: Adobe Illustrator 23.0.1, SVG Export Plug-In . SVG Version: 6.00 Build 0)  -->
<svg version="1.1" id="Layer_1" xmlns="http://www.w3.org/2000/svg" xmlns:xlink="http://www.w3.org/1999/xlink" x="0px" y="0px"
	 viewBox="0 0 60 60" style="enable-background:new 0 0 60 60;" xml:space="preserve">
<style type="text/css">
	.st0{fill-rule:evenodd;clip-rule:evenodd;fill:#0E3170;}
	.st1{fill:#FFFFFF;}
</style>
<circle class="st0" cx="30" cy="30" r="30"/>
<g>
	<path class="st1" d="M25.1,26c0.3,0.4,0.6,0.9,1,1.3c0.2,0.2,0.5,0.4,0.7,0.6c0.8,0.6,1.8,1,2.7,1.1c0.3,0,0.6,0,0.9-0.1
		c0.7-0.1,1.4-0.5,2-0.9c1-0.7,1.7-1.8,2.1-3c0.1-0.3,0.2-0.9,0-1.2c-0.1-0.2-0.4-0.3-0.6-0.4c-0.4-0.3-1-0.4-1.5-0.5h-0.1
		c-0.7-0.2-1.5-0.3-2.3-0.3c0.1-0.2,0.1-0.4,0.2-0.6c0.1-0.4,0.2-0.9,0.3-1.4c0.1-1.6-0.5-2.8-1-4.1c0-0.2-0.1-0.3-0.1-0.5
		c-0.1-0.1-0.1-0.5-0.2-0.6c0,0.1,0,0.2,0,0.3c-0.1,0.3-0.2,0.7-0.3,1.1c-0.1,0.6-0.3,1.1-0.5,1.6c-0.3,1-0.5,2.4-0.1,3.4
		c0.1,0.3,0.2,0.6,0.4,0.8c0,0.1-0.2,0.1-0.3,0.1c-0.2,0-0.4-0.1-0.5,0c-0.1,0-0.1,0-0.2,0c-0.1,0-0.1,0-0.2,0c-0.2,0-0.4,0-0.5,0.1
		c-0.2,0-0.3,0-0.4,0.1c-0.1,0-0.2,0-0.3,0c-0.2,0.1-0.4,0.1-0.6,0.2c-0.3,0.1-0.7,0.3-0.8,0.6C24.5,24.3,25,25.4,25.1,26z M30,22.9
		c0.4,0,1.6,0.1,2.4,0.4c1,0.2,1.8,0.4,1.7,0.9C34,24.6,33,24.9,32.6,25c-0.1,0.1-0.1,0.1-0.2,0.1h-0.1c-0.1,0-0.3,0-0.4,0.1
		c-0.6,0-2,0-2.2-0.8C29.6,23.8,29.9,23.3,30,22.9z M26.3,23.4c0.2-0.1,0.5-0.2,0.7-0.2c0.4-0.1,0.7-0.2,0.9-0.2
		c0.2,0,0.6,0,0.8-0.1c0.3,0.2,0.8,1.1,0.8,1.5c0,0.1,0,0.2-0.1,0.3c-0.1,0.2-0.3,0.3-0.5,0.4c-0.1,0-0.2,0.1-0.3,0.1h-0.2
		c-0.2,0-0.8-0.1-1.4-0.2c-0.2-0.1-0.5-0.1-0.7-0.2c-0.6-0.2-1.1-0.4-1-0.8C25.3,23.7,25.8,23.5,26.3,23.4z"/>
	<path class="st1" d="M34.9,20.4c0.1,0.2,0.2,0.5,0.2,0.7v1c0,0.6,0,1.2,0.1,1.7c0,0.3,0.1,0.7,0.2,1c0,0.1,0.1,0.3,0.1,0.4
		c0,0.1-0.2,0.3-0.3,0.4c-0.1,0.2-0.2,0.5-0.3,0.7c-0.1,0.2-0.2,0.5-0.2,0.7s0.1,0.5,0,0.6c-0.1,0.2-0.3,0.4-0.4,0.6
		c-0.3,0.4-0.6,0.8-0.9,1.2c-0.3,0.6-0.7,1.1-1,1.6c-0.3,0.4-0.6,0.9-0.9,1.3c-0.4,0.5-0.7,1.1-1,1.7c-0.1,0.3-0.2,0.7-0.3,1.1
		c-0.1,0.2-0.1,0.5-0.1,0.8c0.1,1.1,0.8,2,1.8,2.5c0.1,0.4,0.2,0.9,0.3,1.3c0,0,0,0.1,0.1,0.1h0.1c1.3,0,2.7,0,4,0h0.1
		c0.4,0,0.8,0,1.3,0c0.3,0,0.6,0,0.9-0.1c0-0.1-0.2-0.3-0.3-0.4c-0.4-0.7-0.8-1.5-1.2-2.2c0,0,0-0.1,0-0.2c0.1-0.3,0.4-0.7,0.6-1
		c0.5-0.8,1-1.6,1.5-2.4c0.7-1.2,1.4-2.3,2-3.5c0.1-0.1,0.1-0.2,0.2-0.3c0.4-0.8,0.8-1.6,1-2.5c0.5-1.8,0.3-4-0.1-5.8
		c-0.2-0.8-0.5-1.6-0.9-2.4c-0.3-0.7-0.7-1.4-0.9-2.2c-0.1-0.4-0.3-0.9-0.3-1.4c0-0.2,0-0.4,0-0.6c0-0.1,0-0.2,0-0.3
		c0-0.2-0.7,0-0.8,0.1c-0.9,0.6-0.4,2-0.1,2.8c0.3,1,0.8,1.9,1.2,2.8c0,0.2,0,0.4,0.1,0.5c0.2,0.8,0.4,1.5,0.5,2.2
		c0.1,0.6,0.2,1.3,0,1.8c0,0-0.1,0-0.1-0.1c-0.2-0.4-0.2-0.9-0.2-1.2c-0.1-0.5-0.2-1-0.3-1.4c-0.2-0.7-0.4-1.5-0.7-2.2
		c-0.2-0.5-0.5-1-0.8-1.5c-0.2-0.5-0.4-1-0.5-1.5c-0.1-0.7-0.2-1.5-0.2-2.3c0.1-0.2,0.1-0.4,0.1-0.6h-0.1c-0.1,0.1-0.3,0.1-0.5,0.2
		c-0.2,0.1-0.5,0.4-0.6,0.7c-0.3,0.8,0.2,2.2,0.5,2.9c0.2,0.6,0.5,1.2,0.8,1.8c0.2,0.5,0.5,1,0.7,1.5c0.3,1,0.6,1.9,0.7,3
		c0.1,0.6,0.1,1.4-0.1,1.9c0,0-0.1,0-0.1-0.1c0-0.3,0-0.7,0-1s-0.1-0.6-0.1-0.8s-0.1-0.5-0.1-0.8c-0.1-0.6-0.3-1.2-0.5-1.8
		c-0.2-0.4-0.4-0.8-0.6-1.2c-0.2-0.4-0.5-0.9-0.7-1.4c-0.4-0.8-0.6-1.7-0.9-2.5c-0.2-0.5-0.2-1.1-0.3-1.6c-0.1-0.2-0.1-0.4-0.1-0.6
		c0,0-0.1,0-0.2,0c-0.5,0-1,0.4-1.1,0.9c0,0.1,0,0.3,0,0.5c0,0.1,0,0.3,0.1,0.3h0.4c0,0.3,0.1,0.6,0.2,0.9c0.1,0.6,0.3,1.3,0.4,1.9
		c0.1,0.3,0.1,0.6,0.2,0.8c0.1,0.4,0.3,0.7,0.4,1.1c0.2,0.3,0.3,0.7,0.5,1c0.3,0.7,0.5,1.5,0.6,2.3c0.1,0.5,0.2,0.9,0.3,1.5
		c0.1,0.6,0.2,1.1-0.1,1.6l-0.1-0.1c-0.1-0.2,0-0.5,0-0.7c-0.1-0.6-0.2-1.2-0.3-1.8c-0.1-0.5-0.1-1.1-0.3-1.6
		c-0.3-0.8-0.6-1.5-0.9-2.2c-0.2-0.8-0.5-1.5-0.7-2.4c-0.1-0.4-0.2-0.9-0.3-1.3c0-0.2,0-0.5-0.1-0.6c0,0-0.2,0-0.3,0
		c-0.6,0.2-0.8,0.9-0.8,1.6c0,0.3,0.1,0.6,0.1,0.8C34.5,19.2,34.7,19.8,34.9,20.4z"/>
	<path class="st1" d="M47.1,21.5c-0.3-2.2-1-4.2-2-6c-0.4-0.8-0.8-1.4-1.3-2.1c-0.1-0.2-0.3-0.3-0.4-0.5c-0.6-0.8-1.2-1.5-1.9-2.1
		c-1.5-1.4-3.2-2.4-5-3.2c-1.3-0.6-2.6-1-4-1.2c-0.3,0-0.5-0.1-0.8-0.1c-0.7-0.1-1.4-0.2-2.1-0.2c-1.8,0-3.6,0.3-5.3,0.8
		c-1.4,0.4-2.8,1.2-4,2c-1,0.6-1.9,1.4-2.8,2.3c-1.5,1.6-2.8,3.5-3.7,5.4c-0.4,1-0.8,2-1,3.1c-0.3,1.7-0.3,3.6-0.3,5.4
		c-0.1,1.2-0.1,2.4-0.1,3.6s-0.1,2.5-0.1,3.7v3.4v2.8c0.1,0.4,0.1,0.7,0.2,1.1c0.3,1.6,0.9,3.1,1.6,4.6c0.8,1.9,2,3.6,3.4,5
		c3,3.2,7.5,5.1,11.9,5.1c1.2,0,2.5-0.1,3.7-0.4c3.3-0.7,6.4-2.4,8.9-4.9c1.6-1.6,2.9-3.5,3.8-5.6c0.3-0.8,0.6-1.6,0.8-2.5
		c0.5-1.9,0.5-3.9,0.5-5.8c0.1-2.2,0.1-4.3,0.1-6.4c0-1.2,0-2.3,0-3.5C47.2,23.9,47.3,22.6,47.1,21.5z M45.6,22.3
		c0,3.4,0,6.7-0.1,10v2.6c-0.1,1.6-0.1,3.2-0.1,4.9c0,0.2,0,0.4,0,0.6c0,0.4,0,0.8,0,1.2v1.7c-0.1,0.3-0.2,0.6-0.3,0.9
		c-0.3,0.7-0.7,1.3-1.2,2c-0.1,0.2-0.3,0.3-0.4,0.5c-0.6,0.7-1.2,1.4-1.9,2c-1,0.8-2,1.6-3,2.2c-0.6,0.4-1.2,0.7-1.8,1
		c0,0-0.1,0.1-0.2,0.1c-1.6,0.6-3.2,1.1-4.8,1.4c-1.7,0.3-3.2,0.1-4.9,0c-0.2,0-0.5-0.1-0.7-0.1c-0.5-0.1-1-0.2-1.5-0.4
		c-0.3-0.1-0.6-0.2-0.9-0.3c-0.3-0.1-0.6-0.3-0.9-0.4c0-0.1-0.1-0.1-0.1-0.1c-0.7-0.4-1.4-0.7-2-1.1c-0.7-0.4-1.3-0.9-1.9-1.4
		c-1.1-0.9-2.1-2-3-3.2c-0.9-1.1-1.7-2.5-2.1-3.9c-0.1-0.4-0.1-0.9-0.1-1.4c0-0.9,0-1.8,0-2.7c0-3.8,0.1-7.7,0.1-11.6
		c0-1.1,0-2.3,0-3.4c0-0.9,0.1-1.9,0.1-2.8c0-0.9-0.1-1.8,0.1-2.6c0.1-0.6,0.4-1.2,0.6-1.7c0.4-0.9,1-1.6,1.5-2.4
		c0.4-0.6,0.9-1.1,1.4-1.6c1.1-1.1,2.3-2.1,3.5-2.9c0.5-0.3,1-0.6,1.4-0.8c0.2-0.1,0.4-0.2,0.6-0.3c1.7-0.8,3.6-1.4,5.6-1.5
		c2.2-0.2,4.3,0.1,6.4,0.8c3.1,1.1,6,2.9,8,5.4c0.5,0.7,1,1.4,1.5,2.2c0.3,0.6,0.7,1.4,0.9,2.1c0.2,0.7,0.2,1.5,0.2,2.2
		C45.6,20.4,45.6,21.4,45.6,22.3z"/>
	<path class="st1" d="M43.4,43.9c0.1-0.1,0.1-0.1,0.1-0.2c0-0.1,0-0.1-0.3,0.1c0-0.1-0.1-0.2-0.2-0.3c-0.3-0.5-0.7-1.1-1-1.6
		c-0.1-0.3,0.3-0.3,0.2-0.6C42.1,41.2,42,41,41.9,41c-0.2,0.2-0.3,0.3-0.5,0.4c-1.2,0.8-2.5,1.6-3.8,2.1c-0.4,0.1-0.8,0.2-1.2,0.4
		c-0.1,0-0.1,0.1-0.2,0.1c-0.3,0-0.6,0.1-0.8,0.2c-0.2,0-0.3,0-0.4,0.1c-0.1,0-0.2,0-0.3,0.1c-0.1,0-0.2,0.1-0.3,0.1
		c-0.1,0-0.3,0-0.4,0.1c-0.1,0-0.3,0.1-0.4,0.1c-0.1,0-0.2,0.1-0.3,0.1c-0.1,0-0.1,0-0.2,0c-0.1,0-0.2,0-0.3,0.1c-0.1,0-0.1,0-0.2,0
		h-0.1c-0.1,0-0.2,0-0.3,0c-0.1,0-0.2,0-0.3,0c-0.1,0-0.3,0-0.4,0c0,0-0.1,0-0.2,0c-0.1,0-0.4-0.1-0.5,0h-1.2h-0.3
		c-0.2,0-0.5-0.1-0.7,0c-0.1,0-0.1,0.3-0.1,0.4c0.1,0,0.9,0.1,1.1,0.1c0.1,0,0.1,0,0.1,0c0.1,0.1,0.2,1.1,0.1,1.3
		c-0.1,0.1-0.1,0.2-0.2,0.3c0,0.1,0,0.1,0,0.1h-0.1c0,0.1-0.1,0.1-0.1,0.1c-0.4-0.1-0.6-0.5-0.3-0.8c0.1-0.2,0.3-0.1,0.5-0.2
		c0,0,0.1-0.1,0.1-0.2c0-0.1,0-0.2,0-0.3c0-0.1-0.1-0.1-0.2-0.1s-0.2,0-0.3,0c-0.2,0-0.4,0.1-0.6,0.3c-0.4,0.4-0.4,1-0.1,1.4
		c0.2,0.3,0.8,0.6,1.2,0.4c0.1,0,0.1-0.1,0.2-0.1c0.2,0-0.1,0.6,0.5,0.5c0,0,0.2,0,0.2-0.1c0.1-0.2,0-0.7,0-1c0-0.6-0.1-1.2,0-1.7
		c0.2-0.1,0.3-0.1,0.5-0.1c0.4,0,0.8,0,1.1-0.1c0.1,0,0.1,0.1,0.1,0.1c0,0.1-0.1,0.1-0.2,0.2c-0.5,0-1.2,0.2-1,0.9
		c0,0.2,0.2,0.2,0.2,0.4c0,0.1-0.1,0.3-0.1,0.5c-0.1,0.8,0.5,1.2,1.1,1.4c0-0.1,0.1-0.1,0.1-0.1c0-0.1,0-0.3,0-0.4
		c-0.1-0.3-0.5-0.3-0.6-0.5c-0.2-0.4,0.3-0.8,0.7-0.8c0.1,0.1,0.1,0.1,0.2,0.1c0.1,0.1,0.1,0.2,0.1,0.3c0,0.1-0.1,0.1-0.1,0.2
		c-0.1,0.2,0.1,0.4,0.3,0.3c0.7-0.2,0.5-1.2-0.1-1.4c0-0.1-0.1-0.1-0.2-0.1h-0.3c-0.2,0-0.4,0.1-0.6,0c0-0.4,0.5-0.3,0.9-0.4
		c0.1,0,0.1-0.1,0.2-0.1c0.2-0.2-0.1-0.6,0.1-0.7c0.1,0,0.3-0.1,0.4,0c0.1,0.2,0,0.4,0.1,0.6c0.2,0.7,0.2,1.5,0.5,2.1
		c0.2,0,0.4-0.1,0.5-0.2c0.1-0.2-0.3-1.9-0.4-2.2c0-0.2-0.1-0.4-0.1-0.5c0,0,0.6-0.2,0.7,0c0,0.1,0.2,0.9,0.2,1
		c0,0.1-0.2,0.1-0.2,0.2c-0.1,0.4,0.5,0.6,0.8,0.7c0,0,0.1,0,0.1-0.1c0-0.1,0-0.2,0-0.3c0-0.1,0.2-0.1,0.3-0.2
		c0.1,0-0.1-0.4-0.1-0.4c-0.1,0-0.2,0.1-0.3,0c-0.2-0.1-0.4-0.9-0.3-1c0.1-0.2,0.6-0.3,0.8-0.2c0.1,0,0.2,0.1,0.2,0.2
		c0.1,0.2,0,0.4-0.2,0.5c0,0-0.1,0-0.1,0.1c-0.1,0.1,0,0.3,0,0.4c0.1,0.3,0.4,0.5,0.7,0.6c0.2,0,0.4,0.1,0.6,0
		c0.3-0.1,0.5-0.3,0.7-0.5c0.3,0,0,0.9,0.6,0.6c0.1,0,0.2,0,0.2-0.1c0.1,0,0-0.2,0-0.3c-0.2-0.5-0.4-1.1-0.6-1.6
		c-0.1-0.1-0.2-0.3-0.2-0.5c0-0.2,1.3-0.8,1.5-0.8c0.1,0,0,0.2,0,0.2c-0.1,0.1-0.3,0.1-0.4,0.2c-0.3,0.1-0.6,0.4-0.4,0.9
		c0.1,0.2,0.3,0.3,0.5,0.3c0,0.2-0.1,0.4-0.1,0.6c0,0.6,0.5,1,1.1,1c0.1,0,0.3,0,0.4,0v-0.2c0-0.1,0-0.2-0.1-0.3
		c-0.3-0.2-0.7,0-0.8-0.5c0-0.2,0-0.3,0-0.4c0.1-0.2,0.6-0.5,0.8-0.2c0.1,0.1,0,0.2,0,0.3c0,0.3,0.2,0.5,0.4,0.3
		c0.5-0.5,0-1.6-0.7-1.4c-0.2,0-0.3,0-0.5,0.1c-0.1,0.1-0.2,0.2-0.3,0.2c-0.1,0-0.1-0.1-0.2-0.1c0-0.3,0.9-0.5,1-0.7
		c0.1-0.2-0.3-0.5-0.2-0.7c0.1,0,0.2-0.1,0.2-0.1c0.1-0.1,0.2-0.1,0.3-0.1c0.2,0,0.5,0.6,0.5,0.7c0,0.1-0.1,0.2-0.1,0.3
		c-0.1,0.1,0,0.1,0,0.2c0.1,0.2,0.5,0.3,0.7,0.3s0.5-0.1,0.4-0.3c0,0,0-0.1,0-0.2c0.1-0.1,0.2-0.1,0.3-0.2c0-0.1,0.1-0.1,0.2-0.1
		c0.3,0.1,0.5,0.9,0.8,0.8C43.3,44,43.4,44,43.4,43.9z M37.6,45.4c-0.1,0.2-0.3,0.3-0.6,0.5c-0.2,0-0.4-0.1-0.5-0.3
		c0-0.1,0.1-0.2,0.1-0.2c0.4-0.5,0.1-0.6,0-1.1c0.2-0.1,0.3-0.1,0.4-0.2c0.1,0,0.2,0,0.2,0.1c0.1,0.1,0.1,0.2,0.2,0.3
		C37.5,44.8,37.7,45.1,37.6,45.4z M41.6,43c-0.2,0-0.6-0.7-0.4-0.8c0.1-0.1,0.3-0.3,0.4-0.3h0.1c0.1,0.1,0.1,0.2,0.2,0.3
		c0,0.1,0.2,0.3,0.2,0.4C42.1,42.8,41.7,43,41.6,43z"/>
	<path class="st1" d="M27,44.6c-0.1,0-0.2,0-0.6-0.1c-0.1,0-0.3-0.1-0.5-0.1c-0.2,0-0.4-0.1-0.6-0.1s-0.4,0-0.6-0.1
		c-0.3-0.2-0.2-0.6-0.4-0.8c0-0.1-0.1-0.1-0.2-0.2c-0.1,0-0.3,0-0.4,0c0,0.2,0.3,0.5,0.2,0.7c0,0.1-0.1,0.1-0.2,0.2h-0.1
		c0-0.1-0.1-0.3-0.1-0.4c-0.2-0.3-0.6-0.4-0.9-0.4c-0.2,0.1-0.4,0.2-0.5,0.4c0,0,0-0.1,0-0.2c0-0.1,0-0.2-0.1-0.2
		c-0.2,0-0.4-0.1-0.6-0.2c-0.4-0.2-0.8-0.4-1.2-0.6c-0.2-0.1-0.4-0.2-0.5-0.3c-0.2-0.2-0.1-1-0.3-1.1c-0.1,0-0.3,0-0.4,0
		c0,0.3,0.1,0.5,0.1,0.7c-0.1,0-0.3-0.2-0.4-0.2c-0.3-0.2-0.6-0.5-0.9-0.7c-0.1-0.1-0.2-0.2-0.4-0.3c-0.1,0-0.2-0.1-0.3-0.1
		c0,0.1-0.2,0.2-0.2,0.3c0,0.3,0.5,0.4,0.3,0.7c-0.3,0.6-0.7-0.2-1,0.5c-0.1,0.2-0.1,0.3-0.1,0.5c0,0.4,0.2,0.9,0.6,1.1
		c0.1,0,0.3,0.1,0.4,0.2c0.1,0.1-0.1,0.3-0.2,0.4c0,0.1,0.1,0.1,0.2,0.2c0,0,0.2,0.2,0.3,0.1c0,0,0.1,0,0.1-0.1
		c0.1-0.1,0.1-0.3,0.2-0.4c0.3-0.5,0.6-0.9,0.9-1.4c0-0.1,0.1-0.3,0.2-0.3c0.1-0.1,0.1,0,0.2,0c0.1,0.1,0.1,0.1,0.1,0.2
		c0,0.4-1.4,2.1-1.1,2.4c0.1,0.1,0.3,0.3,0.4,0.2c0.1,0,0.5-0.9,0.6-1c0.3-0.4,0.5-0.9,0.8-1.3c0.1,0,0.2,0.1,0.3,0.1
		c0.1,0,0.2,0.1,0.3,0.2c0.1,0.2,0,0.6-0.1,0.8c0,0-0.1,0.1-0.1,0.2h-0.1c0-0.4-0.5-0.4-0.7-0.1c-0.2,0.4,0,1.1,0.5,1.1
		c0.6,0,0.9-0.8,1.1-1.2c0-0.1,0-0.3,0.4-0.3c0,0,0.1,0.1,0.2,0.1c-0.1,0.2-0.1,0.3-0.2,0.5c-0.1,0.3-0.2,0.7-0.4,1
		c-0.1,0.2-0.4,0.9-0.4,1c0,0.1,0.2,0.2,0.3,0.2c0,0.1,0.2,0.1,0.2,0c0.1-0.2,0.1-0.4,0.2-0.5c0.3-0.6,0.5-1.2,0.8-1.8
		c0.1-0.2,0.3,0,0.4-0.2h0.1c0,0.1,0,0.2,0,0.3c0,0.2,0,0.4,0,0.5c0,0.2-0.3,0.3-0.4,0.4c-0.4,0.5-0.4,1.2,0.1,1.6
		c0.1,0.1,0.3,0.1,0.5,0.2c0.1,0,0,0.3,0,0.4c0.1,0,0.2,0.1,0.4,0.1c0.1,0,0.1,0,0.1,0c0.2,0,0.1-0.4,0.2-0.5
		c0.1-0.1,0.2-0.1,0.3-0.2c0-0.2-0.1-0.3-0.2-0.5c-0.2,0-0.3,0.1-0.4,0.1c-0.2,0-0.3,0.1-0.5-0.1c-0.1-0.1-0.1-0.2-0.1-0.3
		c0-0.2,0.2-0.6,0.5-0.5c0,0,0,0,0.1,0c0.1,0,0.1,0.1,0.2,0.1c0.2,0.1,0.3,0.1,0.5,0.2c0.1,0,0.2,0.1,0.2,0.1c0,0.1,0,0.2,0,0.4
		c-0.1,0.3-0.2,0.6-0.2,0.8c-0.1,0.1-0.1,0.3-0.1,0.4c0,0.1,0.1,0.1,0.2,0.1h0.1c0.1,0,0.1,0,0.2,0c0,0,0.1,0,0.1-0.1
		c0-0.2,0.1-0.4,0.1-0.6c0.1-0.4,0.2-0.8,0.3-1.2c0.1-0.3,0.1-0.6,0.2-0.8c0-0.1,0.5,0.1,0.6,0.1c0,0.1,0,0.2,0,0.3
		c-0.1,0.2-0.1,0.6-0.3,0.7C25.2,46,25,46,25,46.2c0,0.2,0.4,0.9,0.6,0.9c0.4,0.1,0.1-0.5,0.7-0.4h0.1h0.1c0.3,0.2-0.3,1.1,0.2,1.2
		c0.1,0,0.2,0,0.3,0c0-0.1,0.1-0.1,0.1-0.2v-0.6c0.1-0.6,0.2-1.2,0.3-1.9c0.1,0,0.1,0,0.2,0c0.1-0.1,0.2-0.4,0.1-0.5
		C27.6,44.6,27.2,44.6,27,44.6z M18.1,42.2c-0.1,0.3-0.3,0.7-0.6,0.8c-0.4,0.1-0.7-0.4-0.7-0.7h0.1c0.2,0,0.4-0.1,0.6-0.2
		c0.1-0.1,0.2-0.1,0.2-0.2c0.1-0.1,0.1-0.2,0.2-0.3c0.1,0,0.4,0.2,0.4,0.3C18.3,42,18.1,42.1,18.1,42.2z M23,44.2
		c0-0.1,0.1-0.3,0.1-0.3c0.1,0.1,0.3,0.1,0.3,0.3C23.4,44.3,23.1,44.4,23,44.2z M24.1,44.8c-0.1,0.2-0.2,0.2-0.3,0
		c-0.1,0-0.2-0.1-0.3-0.1c0.1,0,0.2-0.2,0.3-0.3c0-0.1,0.1-0.3,0.1-0.3c0.1,0.1,0.1,0.2,0.1,0.3c0,0.1,0.1,0.1,0.1,0.2
		C24.1,44.7,24.1,44.8,24.1,44.8z M26.6,45.4c0,0.1,0,0.6-0.3,0.6h-0.2c-0.1,0-0.2,0-0.3,0c0-0.3,0.1-0.7,0.2-0.9c0.1,0,0.2,0,0.2,0
		c0.2,0,0.3,0,0.4,0.1C26.7,45.2,26.6,45.4,26.6,45.4z"/>
	<path class="st1" d="M27.3,44.2c0.2-0.1,0.2-0.5,0-0.5c-0.1-0.1-0.2-0.1-0.3-0.1s-0.2,0.1-0.2,0.2c0,0.2,0.1,0.3,0.2,0.4
		C27.1,44.3,27.2,44.3,27.3,44.2z"/>
	<path class="st1" d="M43.8,44c-0.1,0.1-0.2,0.1-0.4,0.2c0,0.1-0.1,0.1-0.1,0.1c0,0.1,0.1,0.2,0.1,0.2c0.1,0,0.2,0,0.4-0.1
		c0.2-0.1,0.5-0.3,0.5-0.4c-0.1,0-0.2-0.2-0.3-0.2C43.9,43.9,43.9,43.9,43.8,44z"/>
	<path class="st1" d="M29.1,36.6c0.5-1.7-0.6-3.3-1.5-4.6c-0.3-0.3-0.5-0.7-0.8-1.1c-0.2-0.3-0.5-0.7-0.7-1
		c-0.1-0.3-0.3-0.5-0.4-0.7c-0.4-0.5-0.8-1.1-1.2-1.6c-0.2-0.2-0.1-0.6-0.1-0.8c0-0.1-0.1-0.3-0.1-0.4c-0.1-0.3-0.2-0.6-0.4-0.8
		c-0.1-0.2-0.2-0.3-0.2-0.4V25c0.2-0.7,0.3-1.3,0.4-2c0-0.1,0-0.2,0-0.3c0-0.2,0-0.5,0-0.8c0-0.3,0-0.6,0-0.8
		c0.1-0.4,0.3-0.8,0.4-1.2c0.3-1,1-3.7-0.7-3.8c-0.1,0-0.1,0.2-0.1,0.2c0,0.4-0.1,0.8-0.1,1.1c-0.1,0.4-0.2,0.8-0.3,1.1
		c-0.2,0.6-0.4,1.2-0.6,1.9c0,0.1-0.1,0.2-0.1,0.3c-0.3,0.8-0.7,1.6-0.9,2.5c-0.2,0.5-0.2,1.1-0.3,1.6c0,0.3-0.1,0.6-0.1,0.8
		c0,0.3,0,0.8-0.1,1.1c-0.5,0-0.1-2.5,0-2.8c0.2-0.8,0.4-1.7,0.7-2.5c0.1-0.4,0.3-0.9,0.5-1.3c0.2-0.4,0.3-0.8,0.4-1.1
		c0-0.1,0-0.2,0.1-0.4c0.1-0.3,0.1-0.5,0.2-0.8c0.1-0.4,0.2-0.9,0.3-1.3c0.1-0.2,0.1-0.6,0.2-0.8c0.1,0,0.4,0,0.4,0v-0.3
		c0-0.6-0.1-1-0.4-1.2c-0.2-0.1-0.3-0.1-0.5-0.2c-0.1,0-0.3,0-0.4,0c-0.1,0.1-0.1,0.1-0.1,0.2c0,0.2,0,0.4,0,0.6
		c-0.1,0.8-0.4,1.5-0.6,2.3c0,0.1-0.1,0.4-0.2,0.6c-0.2,0.6-0.5,1.3-0.8,1.9c-0.3,0.6-0.6,1.2-0.8,1.8c-0.6,1.2-0.7,2.9-0.7,4.4
		c-0.2,0-0.2-0.3-0.2-0.4c-0.1-1,0.1-2.1,0.3-3c0.2-0.6,0.3-1.1,0.5-1.6c0.2-0.5,0.5-1.1,0.8-1.7c0.3-0.6,0.6-1.2,0.8-1.8
		c0.2-0.5,0.4-1.1,0.5-1.7c0-0.1,0-0.3,0-0.4c-0.1-0.8-0.7-1.3-1.4-1.4c0,0.1,0,0.3,0,0.4v0.6c0,0.7-0.1,1.2-0.2,1.8
		c-0.2,0.6-0.4,1.1-0.6,1.7c-0.2,0.3-0.4,0.6-0.5,0.9c-0.3,0.5-0.6,1.2-0.8,1.8c-0.2,0.7-0.4,1.4-0.5,2.2c0,0.4-0.1,0.7-0.1,1.1
		c0,0.2,0,0.4-0.1,0.5c-0.4,0,0-1.9,0-2.2s0.1-0.7,0.2-1c0.1-0.4,0.2-0.9,0.4-1.3c0.5-1,0.9-1.9,1.3-2.9c0.1-0.3,0.2-0.6,0.3-0.9
		c0.1-0.3,0.2-0.6,0.1-0.9c0-0.4-0.3-0.9-0.8-1c-0.1,0-0.4-0.1-0.5,0c-0.1,0,0,0.1,0,0.1c0.1,0.4,0.1,0.9,0,1.4
		c0,0.4-0.2,0.8-0.3,1.1c-0.3,0.8-0.7,1.6-1.1,2.5c-0.1,0.2-0.1,0.4-0.2,0.6c-0.4,1.1-0.7,2.3-0.8,3.6v1.5c0,0.7,0.1,1.4,0.3,2.1
		c0.1,0.4,0.3,0.9,0.5,1.3c0.2,0.3,0.4,0.7,0.6,1.1c0.5,0.9,1,1.8,1.5,2.6c0.7,1,1.3,2.1,2,3.2c0.2,0.3,0.3,0.6,0.5,0.8
		c0.1,0.1,0.2,0.2,0.2,0.3c0,0.1,0,0.2,0,0.3c-0.4,0.7-0.8,1.4-1.2,2.1c-0.1,0.1-0.3,0.4-0.3,0.6h0.6c0.6,0,1.1,0,1.7,0h0.9h1.8
		c0.2,0,0.4,0,0.6,0h0.3c0.1,0,0.3,0,0.4,0h0.1c0.2-0.2,0.2-1.2,0.4-1.5c0.2-0.1,0.3-0.2,0.5-0.3C28.5,37.7,28.9,37.2,29.1,36.6z"/>
</g>
</svg>
